<svg width="114" height="39" viewBox="0 0 114 39" fill="none" xmlns="http://www.w3.org/2000/svg">
<path d="M6.04966 21.65V38H0.399664V0.799999H6.04966V15.7H9.89967V0.799999H15.5497V38H9.89967V21.65H6.04966ZM34.1313 8.95V29.7C34.1313 35.5333 31.7313 38.45 26.9313 38.45H25.9813C21.1146 38.45 18.6813 35.5333 18.6813 29.7V9C18.6813 3.3 21.098 0.449998 25.9313 0.449998H26.8813C29.4813 0.449998 31.3313 1.18333 32.4313 2.65C33.5646 4.11666 34.1313 6.21666 34.1313 8.95ZM28.3813 30.1V8.7C28.3813 6.8 27.7313 5.85 26.4313 5.85C25.098 5.85 24.4313 6.8 24.4313 8.7V30.1C24.4313 32 25.1146 32.95 26.4813 32.95C27.748 32.95 28.3813 32 28.3813 30.1ZM36.5629 0.799999H51.6629V6.2H46.9129V38H41.3129V6.2H36.5629V0.799999ZM57.8786 38L53.1786 0.799999H58.9286L61.4786 26.4L64.0786 0.799999H69.4286L64.7286 38H57.8786ZM77.286 0.799999V38H71.636V0.799999H77.286ZM87.395 0.449998H88.445C90.745 0.449998 92.395 0.966665 93.395 2C94.395 3.03333 94.895 4.66667 94.895 6.9V13H89.445V7.65C89.445 6.18333 88.9116 5.45 87.845 5.45C87.2116 5.45 86.7783 5.65 86.545 6.05C86.3116 6.45 86.195 7.11666 86.195 8.05V8.75C86.195 9.81666 86.345 10.7333 86.645 11.5C86.945 12.2667 87.5616 13.25 88.495 14.45L92.095 19.1C93.395 20.8 94.2783 22.2833 94.745 23.55C95.2116 24.7833 95.445 26.4333 95.445 28.5V29.7C95.445 35.5 93.0116 38.4 88.145 38.4H87.045C82.445 38.4 80.145 36.05 80.145 31.35V23.9H85.745V30.4C85.745 32.1333 86.3616 33 87.595 33C88.2616 33 88.7283 32.7667 88.995 32.3C89.295 31.8 89.445 30.9667 89.445 29.8V28.95C89.445 27.5833 89.3116 26.5333 89.045 25.8C88.7783 25.0667 88.145 24.0333 87.145 22.7L83.545 18.1C82.3783 16.5667 81.5616 15.1333 81.095 13.8C80.6616 12.4333 80.445 10.8 80.445 8.9V7.7C80.445 2.86667 82.7616 0.449998 87.395 0.449998ZM107.695 38L106.945 31H102.795L102.095 38H97.0454L101.595 0.799999H108.295L113.145 38H107.695ZM104.845 11.7L103.395 25.45H106.345L104.845 11.7Z" fill="#ED3B3F"/>
</svg>
