<svg width="329" height="39" viewBox="0 0 329 39" fill="none" xmlns="http://www.w3.org/2000/svg">
<path d="M0.444531 38V0.799999H8.64453L11.1945 19.6L13.7445 0.799999H21.3945V38H15.3945V16L12.0945 38H9.59453L6.24453 16V38H0.444531ZM42.2914 9.8V29.5C42.2914 32.2667 41.5914 34.4667 40.1914 36.1C38.7914 37.7333 36.8581 38.55 34.3914 38.55H32.8914C30.2581 38.55 28.2581 37.7833 26.8914 36.25C25.5247 34.6833 24.8414 32.4333 24.8414 29.5V9.85C24.8414 3.51667 27.5081 0.349999 32.8414 0.349999H34.3414C39.6414 0.349999 42.2914 3.5 42.2914 9.8ZM35.3414 29.7V9.3C35.3414 7.66667 34.7581 6.85 33.5914 6.85C32.3914 6.85 31.7914 7.66667 31.7914 9.3V29.7C31.7914 31.1667 32.4081 31.9 33.6414 31.9C34.7747 31.9 35.3414 31.1667 35.3414 29.7ZM53.0797 0.349999H54.4297C56.9964 0.349999 58.8297 0.933332 59.9297 2.1C61.0297 3.26666 61.5797 5.11666 61.5797 7.65V12.65H55.1797V8C55.1797 6.7 54.6964 6.05 53.7297 6.05C52.763 6.05 52.2797 6.71666 52.2797 8.05V8.9C52.2797 10.5667 52.963 12.1667 54.3297 13.7L58.1297 17.95C59.7297 19.75 60.7964 21.3667 61.3297 22.8C61.8964 24.2 62.1797 25.7667 62.1797 27.5V29.25C62.1797 32.15 61.4964 34.4167 60.1297 36.05C58.7964 37.65 56.7797 38.45 54.0797 38.45H52.7797C47.713 38.45 45.1797 35.8833 45.1797 30.75V24.05H51.7297V30C51.7297 31.5 52.2964 32.25 53.4297 32.25C54.5297 32.25 55.0797 31.35 55.0797 29.55V28.85C55.0797 27.45 54.9464 26.4 54.6797 25.7C54.4464 24.9667 53.863 24.0833 52.9297 23.05L49.0797 18.8C47.7464 17.3667 46.813 15.9167 46.2797 14.45C45.7797 12.9833 45.5297 11.2833 45.5297 9.35V7.75C45.5297 5.38333 46.1964 3.56666 47.5297 2.3C48.863 0.999999 50.713 0.349999 53.0797 0.349999ZM71.8484 22.25V38H65.1984V0.799999H71.8484V15.1L76.1984 0.799999H82.7484L77.4984 17.7L83.2984 38H76.2984L71.8484 22.25ZM101.918 9.8V29.5C101.918 32.2667 101.218 34.4667 99.8184 36.1C98.4184 37.7333 96.485 38.55 94.0184 38.55H92.5184C89.885 38.55 87.885 37.7833 86.5184 36.25C85.1517 34.6833 84.4684 32.4333 84.4684 29.5V9.85C84.4684 3.51667 87.135 0.349999 92.4684 0.349999H93.9684C99.2684 0.349999 101.918 3.5 101.918 9.8ZM94.9684 29.7V9.3C94.9684 7.66667 94.385 6.85 93.2184 6.85C92.0184 6.85 91.4184 7.66667 91.4184 9.3V29.7C91.4184 31.1667 92.035 31.9 93.2684 31.9C94.4017 31.9 94.9684 31.1667 94.9684 29.7ZM115.413 0.799999H121.763L124.113 24.4L126.313 0.799999H132.713L127.963 38H120.413L118.463 17.55L116.513 38H108.663L104.012 0.799999H110.913L113.013 24.65L115.413 0.799999ZM145.703 38L140.753 0.799999H147.653L150.103 25.75L152.553 0.799999H158.903L154.153 38H145.703ZM168.069 0.799999V38H161.419V0.799999H168.069ZM179.009 0.349999H180.359C182.926 0.349999 184.759 0.933332 185.859 2.1C186.959 3.26666 187.509 5.11666 187.509 7.65V12.65H181.109V8C181.109 6.7 180.626 6.05 179.659 6.05C178.693 6.05 178.209 6.71666 178.209 8.05V8.9C178.209 10.5667 178.893 12.1667 180.259 13.7L184.059 17.95C185.659 19.75 186.726 21.3667 187.259 22.8C187.826 24.2 188.109 25.7667 188.109 27.5V29.25C188.109 32.15 187.426 34.4167 186.059 36.05C184.726 37.65 182.709 38.45 180.009 38.45H178.709C173.643 38.45 171.109 35.8833 171.109 30.75V24.05H177.659V30C177.659 31.5 178.226 32.25 179.359 32.25C180.459 32.25 181.009 31.35 181.009 29.55V28.85C181.009 27.45 180.876 26.4 180.609 25.7C180.376 24.9667 179.793 24.0833 178.859 23.05L175.009 18.8C173.676 17.3667 172.743 15.9167 172.209 14.45C171.709 12.9833 171.459 11.2833 171.459 9.35V7.75C171.459 5.38333 172.126 3.56666 173.459 2.3C174.793 0.999999 176.643 0.349999 179.009 0.349999ZM201.178 38L200.478 31.75H196.478L195.878 38H189.978L194.678 0.799999H202.578L207.628 38H201.178ZM198.428 12.6L197.128 25.35H199.828L198.428 12.6ZM226.737 38L226.037 31.75H222.037L221.437 38H215.537L220.237 0.799999H228.137L233.187 38H226.737ZM223.987 12.6L222.687 25.35H225.387L223.987 12.6ZM241.823 38.5H241.323C239.456 38.5 237.973 37.8 236.873 36.4C235.806 35 235.273 33.2667 235.273 31.2V9.05C235.273 6.51666 235.89 4.43333 237.123 2.8C238.356 1.16667 240.323 0.349999 243.023 0.349999H244.373C245.94 0.349999 247.256 0.583332 248.323 1.05C249.39 1.51667 250.173 2.18333 250.673 3.05C251.206 3.91666 251.573 4.81666 251.773 5.75C251.973 6.68333 252.073 7.76666 252.073 9V13.1H245.573V8.95C245.573 8.11667 245.44 7.51667 245.173 7.15C244.94 6.78333 244.506 6.6 243.873 6.6C242.773 6.6 242.223 7.38333 242.223 8.95V29.65C242.223 31.25 242.823 32.05 244.023 32.05C245.323 32.05 245.973 31.2833 245.973 29.75V21.75H243.523V15.5H252.373V38H248.323C247.99 36.6 247.656 35.4167 247.323 34.45C247.023 34.9833 246.773 35.4 246.573 35.7C246.406 35.9667 246.09 36.3667 245.623 36.9C245.156 37.4333 244.59 37.8333 243.923 38.1C243.29 38.3667 242.59 38.5 241.823 38.5ZM255.82 0.799999H269.72V7.35H262.47V15.45H268.17V22.15H262.47V31.3H270.07V38H255.82V0.799999ZM273.091 0.799999H279.341L283.891 19.8V0.799999H289.791V38H284.141L278.991 17.6V38H273.091V0.799999ZM303.54 29.8V21.6H310.14V30C310.14 32.5 309.523 34.5667 308.29 36.2C307.09 37.8 305.14 38.6 302.44 38.6H301.09C298.157 38.6 296.107 37.8 294.94 36.2C293.807 34.6 293.24 32.4667 293.24 29.8V8.8C293.24 6.3 293.857 4.26666 295.09 2.7C296.357 1.13333 298.357 0.349999 301.09 0.349999H302.44C303.973 0.349999 305.257 0.566666 306.29 1C307.357 1.43333 308.157 2.06666 308.69 2.9C309.223 3.7 309.59 4.55 309.79 5.45C310.023 6.35 310.14 7.38333 310.14 8.55V14.8H303.54V8.8C303.54 7.36666 302.973 6.65 301.84 6.65C300.74 6.65 300.19 7.36666 300.19 8.8V29.8C300.19 31.3 300.757 32.05 301.89 32.05C302.99 32.05 303.54 31.3 303.54 29.8ZM328.903 0.799999L323.903 23.35V38H317.253V23.6L311.753 0.799999H318.403L320.653 14L322.903 0.799999H328.903Z" fill="#ED3B3F"/>
</svg>
